<svg width="299" height="251" viewBox="0 0 299 251" fill="none" xmlns="http://www.w3.org/2000/svg">
<path d="M0.4 2.79999H59.6V26.8H24.8V106.8H51.2V129.6H24.8V248H0.4V2.79999ZM71.4938 2.79999H130.694V26.8H95.8938V106.8H122.294V129.6H95.8938V224H132.294V248H71.4938V2.79999ZM167.331 214C167.331 225.2 170.931 230.8 178.131 230.8C182.665 230.8 185.598 229.333 186.931 226.4C188.531 223.2 189.331 219.067 189.331 214V169.6C189.331 161.333 187.331 154.267 183.331 148.4C179.598 142.267 173.998 135.467 166.531 128C158.265 120 151.998 112.8 147.731 106.4C143.731 99.7333 141.731 91.7333 141.731 82.4V36C141.731 24.5333 144.931 15.7333 151.331 9.59999C157.731 3.46666 166.798 0.399993 178.531 0.399993C189.465 0.399993 197.998 3.86665 204.131 10.8C210.265 17.4667 213.331 25.8667 213.331 36V94H188.531V21.6H167.731V76.8C167.731 85.6 169.731 93.2 173.731 99.6C177.731 106 183.598 113.2 191.331 121.2C199.331 129.2 205.331 136.4 209.331 142.8C213.331 149.2 215.331 156.933 215.331 166V215.2C215.331 227.2 212.131 236.133 205.731 242C199.598 247.6 190.398 250.4 178.131 250.4C165.598 250.4 156.398 247.2 150.531 240.8C144.665 234.4 141.731 225.867 141.731 215.2V157.2H167.331V214ZM248.441 26.8H223.241V3.19998H298.441V26.8H273.641V248H248.441V26.8Z" fill="white"/>
</svg>
