<svg width="357" height="249" viewBox="0 0 357 249" fill="none" xmlns="http://www.w3.org/2000/svg">
<path d="M0.4 0.799986H32.4L68.8 178.4H70.4V0.799986H94.8V246H62L26.4 58.8H24.8V246H0.4V0.799986ZM188.834 210.8C188.834 223.333 185.501 232.8 178.834 239.2C172.168 245.333 164.301 248.4 155.234 248.4H148.034C138.968 248.4 131.101 245.333 124.434 239.2C117.768 232.8 114.434 223.333 114.434 210.8V38C114.434 25.4667 117.768 16 124.434 9.59999C131.101 3.19999 138.968 -3.8147e-06 148.034 -3.8147e-06H155.234C164.301 -3.8147e-06 172.168 3.19999 178.834 9.59999C185.501 16 188.834 25.4667 188.834 38V210.8ZM163.634 225.6V22.8H139.634V225.6H163.634ZM200.603 0.799986H225.003L240.203 180H242.603L260.203 0.799986H282.603L257.403 246H225.803L200.603 0.799986ZM295.322 0.799986H354.522V24.8H319.722V104.8H346.122V127.6H319.722V222H356.122V246H295.322V0.799986Z" fill="white"/>
</svg>
