<svg width="247" height="249" viewBox="0 0 247 249" fill="none" xmlns="http://www.w3.org/2000/svg">
<path d="M74.6 210.8C74.6 223.333 71.2667 232.8 64.6 239.2C57.9333 245.333 50.0667 248.4 41 248.4H33.8C24.7333 248.4 16.8667 245.333 10.2 239.2C3.53333 232.8 0.200001 223.333 0.200001 210.8V38C0.200001 25.4667 3.53333 16 10.2 9.59999C16.8667 3.19999 24.7333 -3.8147e-06 33.8 -3.8147e-06H41C50.0667 -3.8147e-06 57.9333 3.19999 64.6 9.59999C71.2667 16 74.6 25.4667 74.6 38V210.8ZM49.4 225.6V22.8H25.4V225.6H49.4ZM110.769 24.8H85.5688V1.19998H160.769V24.8H135.969V246H110.769V24.8ZM246.084 210.8C246.084 223.333 242.751 232.8 236.084 239.2C229.418 245.333 221.551 248.4 212.484 248.4H205.284C196.218 248.4 188.351 245.333 181.684 239.2C175.018 232.8 171.684 223.333 171.684 210.8V38C171.684 25.4667 175.018 16 181.684 9.59999C188.351 3.19999 196.218 -3.8147e-06 205.284 -3.8147e-06H212.484C221.551 -3.8147e-06 229.418 3.19999 236.084 9.59999C242.751 16 246.084 25.4667 246.084 38V210.8ZM220.884 225.6V22.8H196.884V225.6H220.884Z" fill="white"/>
</svg>
